<?xml version="1.0" encoding="utf-8"?>
<!-- Generator: Adobe Illustrator 25.2.1, SVG Export Plug-In . SVG Version: 6.00 Build 0)  -->
<svg version="1.1" id="Layer_1" xmlns="http://www.w3.org/2000/svg" xmlns:xlink="http://www.w3.org/1999/xlink" x="0px" y="0px"
	 viewBox="0 0 120 61" style="enable-background:new 0 0 120 61;" xml:space="preserve">
<style type="text/css">
	.st0{fill:#3C54A5;}
</style>
<g>
	<path class="st0" d="M27.66,5.38l-0.06-0.01l-0.01,0l-0.01,0c-0.44,0.01-1.02,0.21-1.28,1.1c-0.14,0.45-0.14,0.97-0.13,1.45
		l0.29,9.05c0.01,0.32,0.2,0.58,0.47,0.63c0.05,0.01,0.1,0.01,0.15,0c0.09-0.01,0.17-0.04,0.24-0.1c0.14-0.1,0.24-0.27,0.27-0.47
		l1.21-8.94l0.01-0.04c0.06-0.45,0.1-0.97,0.01-1.44C28.64,5.7,28.09,5.44,27.66,5.38"/>
	<path class="st0" d="M0.23,41.16l0.02,0.06l0,0l0.01,0.01c0.19,0.39,0.62,0.83,1.54,0.7c0.47-0.07,0.94-0.28,1.37-0.49l8.08-4.08
		c0.29-0.14,0.44-0.42,0.37-0.69c-0.01-0.05-0.03-0.1-0.06-0.14c-0.05-0.07-0.11-0.13-0.19-0.18c-0.15-0.09-0.35-0.1-0.54-0.05
		l-8.62,2.68L2.17,39c-0.43,0.14-0.92,0.32-1.31,0.6C0.1,40.14,0.1,40.75,0.23,41.16"/>
	<path class="st0" d="M10.84,11.04l-0.05,0.03l0,0.01l-0.01,0.01c-0.33,0.29-0.65,0.81-0.29,1.67c0.18,0.44,0.51,0.84,0.82,1.2
		l5.98,6.8c0.21,0.24,0.52,0.32,0.76,0.19c0.05-0.03,0.09-0.06,0.12-0.09c0.06-0.06,0.1-0.14,0.13-0.23
		c0.05-0.17,0.01-0.37-0.09-0.53l-4.76-7.67l-0.02-0.04c-0.24-0.38-0.54-0.81-0.91-1.12C11.8,10.66,11.21,10.81,10.84,11.04"/>
	<path class="st0" d="M0.97,24.38l-0.02,0.06l0,0.01l0,0.01c-0.1,0.43-0.04,1.04,0.76,1.51c0.41,0.24,0.91,0.38,1.37,0.48l8.85,1.91
		c0.31,0.07,0.61-0.05,0.73-0.3c0.02-0.05,0.04-0.1,0.04-0.15c0.01-0.09,0-0.17-0.04-0.26c-0.07-0.16-0.21-0.3-0.39-0.38l-8.39-3.33
		l-0.04-0.02c-0.42-0.16-0.92-0.33-1.4-0.36C1.52,23.51,1.13,23.98,0.97,24.38"/>
	<path class="st0" d="M35.26,41.07h-8.54l7.89-12.53h0.66V41.07z M43.15,41.07V17.55h-8.42L18.05,41.34v6.55h16.6v6.62h8.5v-6.62
		h2.1v-6.82H43.15z"/>
	<g>
		<path class="st0" d="M54.15,46.78l0.1-26.34c0-2.07-0.58-2.8-2.53-2.85l-6.48-0.04v23.52h2.08v6.82h-2.08v6.62H65.3v-7.74H54.15z"
			/>
		<path class="st0" d="M67.19,54.51h7.74c0,0,0-23.4,0-24.82c0-1.42-0.14-2.75-2.51-2.72c-2.36,0.03-5.23,0-5.23,0V54.51z
			 M67.19,23.25h7.74v-5.7h-7.74V23.25z"/>
		<path class="st0" d="M90.56,22.48h0.61v-5.65h-0.86c-4.48,0-10.44,0.86-10.44,8.3v1.84h-3.16v5.7h3.16v21.84h7.74V32.67h3.56v-5.7
			h-3.56v-1.48C87.61,23.27,89.13,22.48,90.56,22.48"/>
		<path class="st0" d="M98.32,37.97l0.09-0.43c0.4-1.9,2.28-5.12,6.77-5.12c4.48,0,6.36,3.22,6.77,5.12l0.09,0.43H98.32z
			 M119.68,41.07c0-8.59-6.26-15.07-14.56-15.07c-7.97,0-14.46,6.65-14.46,14.82c0,8.06,6.55,14.61,14.61,14.61
			c2.87,0,5.58-0.86,7.84-2.48c2.24-1.53,4.1-3.79,5.41-6.58h-7.93c-1.13,1.39-2.58,2.65-5.31,2.65c-3.66,0-6.46-2.27-6.97-5.65
			l-0.06-0.41h21.29C119.61,42.44,119.68,41.99,119.68,41.07"/>
	</g>
	<g>
		<path class="st0" d="M116.55,54.08c0-0.28,0.06-0.54,0.19-0.77c0.13-0.24,0.31-0.43,0.53-0.56c0.23-0.14,0.47-0.21,0.74-0.21
			s0.51,0.07,0.74,0.21c0.23,0.14,0.41,0.32,0.53,0.56c0.13,0.24,0.19,0.5,0.19,0.77c0,0.28-0.07,0.54-0.2,0.78
			c-0.13,0.24-0.31,0.43-0.54,0.56c-0.23,0.14-0.47,0.2-0.73,0.2c-0.27,0-0.51-0.07-0.74-0.21c-0.23-0.14-0.4-0.33-0.53-0.56
			C116.62,54.62,116.55,54.36,116.55,54.08z M116.81,54.08c0,0.23,0.05,0.44,0.15,0.64c0.1,0.2,0.25,0.35,0.44,0.47
			s0.4,0.18,0.62,0.18c0.23,0,0.43-0.06,0.62-0.18c0.19-0.12,0.33-0.28,0.44-0.47c0.1-0.2,0.15-0.41,0.15-0.64
			c0-0.23-0.05-0.44-0.15-0.64c-0.1-0.2-0.25-0.35-0.44-0.47c-0.19-0.12-0.39-0.18-0.62-0.18c-0.22,0-0.42,0.06-0.61,0.17
			c-0.19,0.11-0.34,0.27-0.44,0.47C116.86,53.63,116.81,53.85,116.81,54.08z M117.72,54.24v0.7h-0.31v-1.75h0.58
			c0.21,0,0.38,0.05,0.49,0.14c0.12,0.1,0.18,0.23,0.18,0.4c0,0.15-0.07,0.27-0.22,0.35c0.08,0.04,0.14,0.1,0.17,0.18
			c0.03,0.08,0.05,0.17,0.05,0.29c0,0.11,0,0.19,0.01,0.24c0,0.05,0.01,0.09,0.03,0.12v0.03h-0.32c-0.02-0.05-0.03-0.18-0.03-0.4
			c0-0.1-0.02-0.18-0.07-0.23c-0.05-0.05-0.12-0.07-0.23-0.07H117.72z M117.72,53.96h0.26c0.1,0,0.19-0.02,0.26-0.06
			c0.07-0.04,0.1-0.1,0.1-0.17c0-0.1-0.02-0.16-0.07-0.21c-0.05-0.04-0.14-0.06-0.26-0.06h-0.29V53.96z"/>
	</g>
</g>
</svg>
